<svg width="24" height="24" viewBox="0 0 24 24" fill="none" xmlns="http://www.w3.org/2000/svg">
<path d="M5 11.5C5 11.2239 5.22386 11 5.5 11H18.5C18.7761 11 19 11.2239 19 11.5V12.5C19 12.7761 18.7761 13 18.5 13H5.5C5.22386 13 5 12.7761 5 12.5V11.5Z" fill="#01488A"/>
<path d="M5 15.5C5 15.2239 5.22386 15 5.5 15H18.5C18.7761 15 19 15.2239 19 15.5V16.5C19 16.7761 18.7761 17 18.5 17H5.5C5.22386 17 5 16.7761 5 16.5V15.5Z" fill="#01488A"/>
<path d="M5 7.5C5 7.22386 5.22386 7 5.5 7H18.5C18.7761 7 19 7.22386 19 7.5V8.5C19 8.77614 18.7761 9 18.5 9H5.5C5.22386 9 5 8.77614 5 8.5V7.5Z" fill="#01488A"/>
</svg>
